<svg width="667" height="177" viewBox="0 0 667 177" fill="none" xmlns="http://www.w3.org/2000/svg">
<path d="M551.415 46.9037C541.777 39.1924 529.8 34.9939 517.457 35C502.907 35 489.317 40.6056 479.157 50.7849C469.338 60.6346 463.957 73.6393 464 87.394C464.001 97.4785 466.961 107.341 472.515 115.759L472.56 115.823C472.627 115.921 472.696 116.019 472.766 116.114C472.835 116.21 472.921 116.334 472.94 116.365L472.993 116.461C473.262 116.938 473.47 117.521 473.286 118.109L468.887 134.03C468.711 134.622 468.615 135.235 468.6 135.852C468.597 137.476 469.238 139.036 470.383 140.188C471.528 141.341 473.083 141.992 474.707 142C475.566 141.971 476.412 141.786 477.203 141.453L493.322 135.635L493.525 135.556C493.964 135.372 494.435 135.278 494.911 135.281C495.349 135.282 495.784 135.363 496.193 135.52C496.58 135.671 500.094 137.015 503.8 138.052C506.881 138.912 513.292 140.201 518.315 140.201C532.561 140.201 545.865 134.684 555.772 124.662C565.593 114.717 571 101.497 571 87.4227C571.001 83.8098 570.619 80.207 569.858 76.675C567.389 65.0626 560.84 54.4869 551.415 46.9037ZM494.572 96.1427C493.06 96.1427 491.582 95.6945 490.325 94.8547C489.069 94.0149 488.089 92.8212 487.511 91.4247C486.932 90.0281 486.781 88.4914 487.076 87.0088C487.371 85.5263 488.098 84.1644 489.167 83.0956C490.236 82.0267 491.598 81.2988 493.081 81.0039C494.563 80.709 496.1 80.8603 497.496 81.4388C498.893 82.0173 500.087 82.9969 500.926 84.2537C501.766 85.5106 502.214 86.9883 502.214 88.4999C502.214 90.5269 501.409 92.4709 499.976 93.9042C498.543 95.3375 496.599 96.1427 494.572 96.1427ZM517.5 96.1427C515.989 96.1427 514.511 95.6945 513.254 94.8547C511.997 94.0149 511.018 92.8212 510.439 91.4247C509.861 90.0281 509.709 88.4914 510.004 87.0088C510.299 85.5263 511.027 84.1644 512.096 83.0956C513.165 82.0267 514.527 81.2988 516.009 81.0039C517.492 80.709 519.028 80.8603 520.425 81.4388C521.821 82.0173 523.015 82.9969 523.855 84.2537C524.695 85.5106 525.143 86.9883 525.143 88.4999C525.143 90.5269 524.338 92.4709 522.904 93.9042C521.471 95.3375 519.527 96.1427 517.5 96.1427ZM540.429 96.1427C538.917 96.1427 537.439 95.6945 536.183 94.8547C534.926 94.0149 533.946 92.8212 533.368 91.4247C532.789 90.0281 532.638 88.4914 532.933 87.0088C533.228 85.5263 533.955 84.1644 535.024 83.0956C536.093 82.0267 537.455 81.2988 538.938 81.0039C540.42 80.709 541.957 80.8603 543.353 81.4388C544.75 82.0173 545.944 82.9969 546.783 84.2537C547.623 85.5106 548.071 86.9883 548.071 88.4999C548.071 90.5269 547.266 92.4709 545.833 93.9042C544.4 95.3375 542.456 96.1427 540.429 96.1427Z" fill="#7C01F6"/>
<path d="M201.677 140.37C201.677 142.123 196.469 143 186.053 143C175.637 143 170.429 142.123 170.429 140.37V104.791H148.772V140.37C148.772 142.123 143.564 143 133.148 143C122.732 143 117.524 142.123 117.524 140.37V37.8096C117.524 35.6439 122.732 34.561 133.148 34.561C143.564 34.561 148.772 35.6439 148.772 37.8096V74.1621H170.429V38.1189C170.429 36.6751 173.007 35.6439 178.164 35.0251C180.845 34.8188 183.475 34.7157 186.053 34.7157L193.942 35.0251C199.099 35.6439 201.677 36.6751 201.677 38.1189V140.37ZM289.782 143.309C280.81 143.309 275.963 141.866 275.241 138.978L270.136 119.023H245.54L241.054 138.205C240.436 141.402 235.485 143 226.204 143C221.254 143 217.593 142.742 215.221 142.227C212.849 141.608 211.663 141.144 211.663 140.834L239.043 36.1079C239.043 35.2829 246.108 34.8704 260.236 34.8704C274.365 34.8704 281.429 35.2829 281.429 36.1079L308.191 140.989C308.191 141.711 305.819 142.278 301.075 142.691C296.331 143.103 292.567 143.309 289.782 143.309ZM249.408 99.3769H265.65L258.689 67.3557H257.761L249.408 99.3769ZM361.077 140.525C361.077 142.587 355.972 143.619 345.763 143.619C335.553 143.619 330.448 142.587 330.448 140.525V62.8696H311.885C310.132 62.8696 308.894 60.4977 308.172 55.7538C307.863 53.485 307.708 51.1646 307.708 48.7927C307.708 46.4207 307.863 44.1003 308.172 41.8315C308.894 37.0877 310.132 34.7157 311.885 34.7157H379.176C380.929 34.7157 382.167 37.0877 382.889 41.8315C383.198 44.1003 383.353 46.4207 383.353 48.7927C383.353 51.1646 383.198 53.485 382.889 55.7538C382.167 60.4977 380.929 62.8696 379.176 62.8696H361.077V140.525ZM628.105 37.8096C628.105 35.747 633.674 34.7157 644.812 34.7157C656.053 34.7157 661.674 35.747 661.674 37.8096V108.813C661.674 119.332 657.909 127.943 650.381 134.647C642.853 141.247 632.437 144.547 619.133 144.547C605.933 144.547 595.156 141.144 586.803 134.337C578.552 127.428 574.427 118.146 574.427 106.493V37.9642C574.427 35.9017 579.996 34.8704 591.134 34.8704C602.375 34.8704 607.995 35.9017 607.995 37.9642V107.73C607.995 109.793 609.078 111.443 611.244 112.68C613.513 113.918 615.885 114.537 618.36 114.537C620.835 114.537 623.052 113.969 625.012 112.835C627.074 111.701 628.105 109.999 628.105 107.73V37.8096Z" fill="#EDDBFF"/>
<path d="M438.725 140.525C438.725 142.587 433.62 143.619 423.411 143.619C413.201 143.619 408.096 142.587 408.096 140.525V62.8696H389.533C387.78 62.8696 386.542 60.4977 385.821 55.7538C385.511 53.485 385.356 51.1646 385.356 48.7927C385.356 46.4207 385.511 44.1003 385.821 41.8315C386.542 37.0877 387.78 34.7157 389.533 34.7157H456.824C458.577 34.7157 459.815 37.0877 460.537 41.8315C460.846 44.1003 461.001 46.4207 461.001 48.7927C461.001 51.1646 460.846 53.485 460.537 55.7538C459.815 60.4977 458.577 62.8696 456.824 62.8696H438.725V140.525Z" fill="#7C01F6"/>
<path d="M76.4643 34C85.4444 34 93.3175 35.0628 100.083 37.1885C106.972 39.2129 110.417 41.9965 110.417 45.5392C110.417 49.0819 108.756 53.485 105.435 58.7485C102.236 63.9108 99.5298 66.4919 97.3155 66.4919C96.7004 66.4919 95.9623 66.2389 95.1012 65.7328C94.3631 65.1254 92.5179 64.5181 89.5655 63.9108C86.7361 63.2022 84.2758 62.848 82.1845 62.848C75.0496 62.848 69.2679 64.923 64.8393 69.0731C60.5337 73.2231 58.381 79.6 58.381 88.2038C58.381 96.7064 60.5952 103.033 65.0238 107.183C69.5754 111.333 75.2956 113.408 82.1845 113.408C85.0139 113.408 88.1508 113.104 91.5952 112.497C95.1627 111.788 97.6845 110.827 99.1607 109.612C99.4067 109.41 99.8988 109.308 100.637 109.308C101.375 109.308 102.728 110.472 104.696 112.801C106.788 115.027 108.694 118.013 110.417 121.759C112.139 125.403 113 128.237 113 130.261C113 134.209 109.31 137.347 101.929 139.675C94.5476 142.003 85.8135 143.167 75.7262 143.167C59.4881 143.167 46.1409 138.46 35.6845 129.046C25.2282 119.633 20 106.373 20 89.2666C20 72.0591 25.3512 58.5461 36.0536 48.7276C46.879 38.9092 60.3492 34 76.4643 34Z" fill="#EDDBFF"/>
<path d="M32.846 140.393C26.7198 141.938 21.1138 136.662 22.7554 130.897L27.4532 114.397C29.0947 108.632 36.7526 106.7 41.2373 110.921L54.0721 123C58.5568 127.22 56.5049 134.427 50.3787 135.972L32.846 140.393Z" fill="#EDDBFF"/>
</svg>
