<svg width="315" height="388" viewBox="0 0 315 388" fill="none" xmlns="http://www.w3.org/2000/svg">
<path d="M190.971 0C221.343 0 247.971 3.7288 270.854 11.1864C294.154 18.2888 305.803 28.0547 305.803 40.484C305.803 52.9133 300.187 68.3612 288.953 86.8276C278.135 104.939 268.982 113.994 261.493 113.994C259.413 113.994 256.916 113.107 254.004 111.331C251.508 109.2 245.267 107.07 235.281 104.939C225.712 102.453 217.391 101.21 210.318 101.21C186.186 101.21 166.631 108.49 151.653 123.05C137.091 137.61 129.81 159.983 129.81 190.168C129.81 219.999 137.299 242.194 152.277 256.754C167.672 271.314 187.018 278.594 210.318 278.594C219.887 278.594 230.497 277.529 242.146 275.398C254.212 272.912 262.741 269.538 267.734 265.277C268.566 264.567 270.23 264.211 272.727 264.211C275.223 264.211 279.8 268.295 286.457 276.463C293.53 284.276 299.979 294.752 305.803 307.892C311.628 320.676 314.541 330.619 314.541 337.722C314.541 351.572 302.059 362.58 277.095 370.748C252.132 378.916 222.591 383 188.475 383C133.555 383 88.4122 366.487 53.0471 333.46C17.682 300.434 -0.000488281 253.913 -0.000488281 193.897C-0.000488281 133.526 18.0981 86.1173 54.2953 51.6704C90.9085 17.2235 136.467 0 190.971 0Z" fill="#7C01F6"/>
<path d="M41.9145 386.526C24.0689 391.308 7.73894 374.978 12.5207 357.133L32.0602 284.21C36.8419 266.364 59.149 260.387 72.2129 273.451L125.596 326.834C138.66 339.898 132.683 362.205 114.837 366.987L41.9145 386.526Z" fill="#7C01F6"/>
</svg>
